<mxfile host="app.diagrams.net" modified="2022-02-20T12:21:12.248Z" agent="5.0 (Windows NT 10.0; Win64; x64) AppleWebKit/537.36 (KHTML, like Gecko) Chrome/98.0.4758.102 Safari/537.36 Edg/98.0.1108.56" etag="4YABanJUKKgaJI8NOQRN" version="16.6.1" type="github" pages="7">
  <diagram id="rOHRQFL3-TiZiUrHqt5O" name="Dashboard">
    <mxGraphModel dx="1278" dy="547" grid="1" gridSize="10" guides="1" tooltips="1" connect="1" arrows="1" fold="1" page="1" pageScale="1" pageWidth="850" pageHeight="1100" math="0" shadow="0">
      <root>
        <mxCell id="VHeSDFSm1TFi8HrFbi_s-0" />
        <mxCell id="VHeSDFSm1TFi8HrFbi_s-1" parent="VHeSDFSm1TFi8HrFbi_s-0" />
        <mxCell id="zGshEbDxM6zdi8yPU1dQ-4" value="&lt;h1&gt;&lt;span&gt;&amp;lt;logo&amp;gt;&lt;/span&gt;&lt;/h1&gt;&lt;h1&gt;&lt;span style=&quot;font-size: 48px ; font-weight: normal&quot;&gt;Lorem ipsum dolor sit amet, consectetur adipisicing elit, sed do eiusmod tempor incididunt ut labore et dolore magna aliqua.&lt;/span&gt;&lt;br&gt;&lt;/h1&gt;" style="text;html=1;strokeColor=none;fillColor=none;spacing=5;spacingTop=-20;whiteSpace=wrap;overflow=hidden;rounded=0;fontSize=48;" parent="VHeSDFSm1TFi8HrFbi_s-1" vertex="1">
          <mxGeometry x="20" y="110" width="900" height="590" as="geometry" />
        </mxCell>
        <mxCell id="zGshEbDxM6zdi8yPU1dQ-5" value="Login / Register" style="rounded=1;whiteSpace=wrap;html=1;fontSize=48;" parent="VHeSDFSm1TFi8HrFbi_s-1" vertex="1">
          <mxGeometry x="180" y="730" width="390" height="60" as="geometry" />
        </mxCell>
        <mxCell id="zGshEbDxM6zdi8yPU1dQ-7" value="" style="shape=mxgraph.signs.nature.snowflake;html=1;pointerEvents=1;fillColor=#000000;strokeColor=none;verticalLabelPosition=bottom;verticalAlign=top;align=center;fontSize=48;" parent="VHeSDFSm1TFi8HrFbi_s-1" vertex="1">
          <mxGeometry x="945" y="220" width="660" height="790" as="geometry" />
        </mxCell>
      </root>
    </mxGraphModel>
  </diagram>
  <diagram id="3kxDNHPPnNsB9dCWjH9g" name="Login ( &lt; Login / Register)">
    <mxGraphModel dx="1278" dy="547" grid="1" gridSize="10" guides="1" tooltips="1" connect="1" arrows="1" fold="1" page="1" pageScale="1" pageWidth="850" pageHeight="1100" math="0" shadow="0">
      <root>
        <mxCell id="qCeICkrcrMTkjFHieWzn-0" />
        <mxCell id="qCeICkrcrMTkjFHieWzn-1" parent="qCeICkrcrMTkjFHieWzn-0" />
        <mxCell id="IbkSvAO_IBIfECH4XRdq-0" value="" style="rounded=1;whiteSpace=wrap;html=1;" parent="qCeICkrcrMTkjFHieWzn-1" vertex="1">
          <mxGeometry x="250" y="130" width="350" height="450" as="geometry" />
        </mxCell>
        <mxCell id="IbkSvAO_IBIfECH4XRdq-1" value="&lt;span style=&quot;font-size: 36px&quot;&gt;Login&lt;/span&gt;" style="text;html=1;strokeColor=none;fillColor=none;align=center;verticalAlign=middle;whiteSpace=wrap;rounded=0;" parent="qCeICkrcrMTkjFHieWzn-1" vertex="1">
          <mxGeometry x="395" y="210" width="60" height="30" as="geometry" />
        </mxCell>
        <mxCell id="IbkSvAO_IBIfECH4XRdq-4" value="&amp;lt;logo&amp;gt;" style="text;html=1;strokeColor=none;fillColor=none;align=center;verticalAlign=middle;whiteSpace=wrap;rounded=0;fontSize=36;" parent="qCeICkrcrMTkjFHieWzn-1" vertex="1">
          <mxGeometry x="395" y="150" width="60" height="30" as="geometry" />
        </mxCell>
        <mxCell id="IbkSvAO_IBIfECH4XRdq-6" value="&lt;font style=&quot;font-size: 24px&quot;&gt;Email&lt;/font&gt;" style="text;html=1;strokeColor=none;fillColor=none;align=center;verticalAlign=middle;whiteSpace=wrap;rounded=0;" parent="qCeICkrcrMTkjFHieWzn-1" vertex="1">
          <mxGeometry x="280" y="268" width="60" height="30" as="geometry" />
        </mxCell>
        <mxCell id="IbkSvAO_IBIfECH4XRdq-7" value="" style="rounded=1;whiteSpace=wrap;html=1;fontSize=24;" parent="qCeICkrcrMTkjFHieWzn-1" vertex="1">
          <mxGeometry x="280" y="310" width="290" height="30" as="geometry" />
        </mxCell>
        <mxCell id="IbkSvAO_IBIfECH4XRdq-8" value="&lt;span style=&quot;font-size: 24px&quot;&gt;Password&lt;br&gt;&lt;/span&gt;" style="text;html=1;strokeColor=none;fillColor=none;align=center;verticalAlign=middle;whiteSpace=wrap;rounded=0;" parent="qCeICkrcrMTkjFHieWzn-1" vertex="1">
          <mxGeometry x="300" y="355" width="60" height="30" as="geometry" />
        </mxCell>
        <mxCell id="IbkSvAO_IBIfECH4XRdq-9" value="" style="rounded=1;whiteSpace=wrap;html=1;fontSize=24;" parent="qCeICkrcrMTkjFHieWzn-1" vertex="1">
          <mxGeometry x="280" y="397" width="290" height="30" as="geometry" />
        </mxCell>
        <mxCell id="IbkSvAO_IBIfECH4XRdq-10" value="Login" style="rounded=1;whiteSpace=wrap;html=1;fontSize=24;" parent="qCeICkrcrMTkjFHieWzn-1" vertex="1">
          <mxGeometry x="379" y="440" width="93" height="40" as="geometry" />
        </mxCell>
        <mxCell id="IbkSvAO_IBIfECH4XRdq-11" value="Continue with SSO" style="rounded=1;whiteSpace=wrap;html=1;fontSize=24;" parent="qCeICkrcrMTkjFHieWzn-1" vertex="1">
          <mxGeometry x="315" y="490" width="221" height="40" as="geometry" />
        </mxCell>
        <mxCell id="IbkSvAO_IBIfECH4XRdq-12" value="Not a member yet? &lt;u&gt;Register&lt;/u&gt;" style="text;html=1;strokeColor=none;fillColor=none;align=center;verticalAlign=middle;whiteSpace=wrap;rounded=0;fontSize=24;" parent="qCeICkrcrMTkjFHieWzn-1" vertex="1">
          <mxGeometry x="263" y="538" width="315" height="30" as="geometry" />
        </mxCell>
      </root>
    </mxGraphModel>
  </diagram>
  <diagram id="MK6e0GaYvWDbEAHmBG_V" name="Register ( &lt; Login / Register)">
    <mxGraphModel dx="1278" dy="547" grid="1" gridSize="10" guides="1" tooltips="1" connect="1" arrows="1" fold="1" page="1" pageScale="1" pageWidth="850" pageHeight="1100" math="0" shadow="0">
      <root>
        <mxCell id="kSZy8nckx7b0mnoyBmOj-0" />
        <mxCell id="kSZy8nckx7b0mnoyBmOj-1" parent="kSZy8nckx7b0mnoyBmOj-0" />
        <mxCell id="aVoNAQ4Fh9zmjPNUE42r-0" value="" style="rounded=1;whiteSpace=wrap;html=1;" parent="kSZy8nckx7b0mnoyBmOj-1" vertex="1">
          <mxGeometry x="250" y="130" width="350" height="450" as="geometry" />
        </mxCell>
        <mxCell id="aVoNAQ4Fh9zmjPNUE42r-1" value="&lt;span style=&quot;font-size: 36px&quot;&gt;Register&lt;/span&gt;" style="text;html=1;strokeColor=none;fillColor=none;align=center;verticalAlign=middle;whiteSpace=wrap;rounded=0;" parent="kSZy8nckx7b0mnoyBmOj-1" vertex="1">
          <mxGeometry x="395" y="210" width="60" height="30" as="geometry" />
        </mxCell>
        <mxCell id="aVoNAQ4Fh9zmjPNUE42r-2" value="&amp;lt;logo&amp;gt;" style="text;html=1;strokeColor=none;fillColor=none;align=center;verticalAlign=middle;whiteSpace=wrap;rounded=0;fontSize=36;" parent="kSZy8nckx7b0mnoyBmOj-1" vertex="1">
          <mxGeometry x="395" y="150" width="60" height="30" as="geometry" />
        </mxCell>
        <mxCell id="aVoNAQ4Fh9zmjPNUE42r-3" value="&lt;font style=&quot;font-size: 24px&quot;&gt;Email&lt;/font&gt;" style="text;html=1;strokeColor=none;fillColor=none;align=center;verticalAlign=middle;whiteSpace=wrap;rounded=0;" parent="kSZy8nckx7b0mnoyBmOj-1" vertex="1">
          <mxGeometry x="280" y="334" width="60" height="30" as="geometry" />
        </mxCell>
        <mxCell id="aVoNAQ4Fh9zmjPNUE42r-4" value="" style="rounded=1;whiteSpace=wrap;html=1;fontSize=24;" parent="kSZy8nckx7b0mnoyBmOj-1" vertex="1">
          <mxGeometry x="280" y="376" width="290" height="30" as="geometry" />
        </mxCell>
        <mxCell id="aVoNAQ4Fh9zmjPNUE42r-5" value="&lt;span style=&quot;font-size: 24px&quot;&gt;Password&lt;br&gt;&lt;/span&gt;" style="text;html=1;strokeColor=none;fillColor=none;align=center;verticalAlign=middle;whiteSpace=wrap;rounded=0;" parent="kSZy8nckx7b0mnoyBmOj-1" vertex="1">
          <mxGeometry x="300" y="413" width="60" height="30" as="geometry" />
        </mxCell>
        <mxCell id="aVoNAQ4Fh9zmjPNUE42r-6" value="" style="rounded=1;whiteSpace=wrap;html=1;fontSize=24;" parent="kSZy8nckx7b0mnoyBmOj-1" vertex="1">
          <mxGeometry x="280" y="455" width="290" height="30" as="geometry" />
        </mxCell>
        <mxCell id="aVoNAQ4Fh9zmjPNUE42r-7" value="Login" style="rounded=1;whiteSpace=wrap;html=1;fontSize=24;" parent="kSZy8nckx7b0mnoyBmOj-1" vertex="1">
          <mxGeometry x="379" y="497" width="93" height="40" as="geometry" />
        </mxCell>
        <mxCell id="aVoNAQ4Fh9zmjPNUE42r-9" value="Already a member? &lt;u&gt;Login&lt;/u&gt;" style="text;html=1;strokeColor=none;fillColor=none;align=center;verticalAlign=middle;whiteSpace=wrap;rounded=0;fontSize=24;" parent="kSZy8nckx7b0mnoyBmOj-1" vertex="1">
          <mxGeometry x="263" y="538" width="315" height="30" as="geometry" />
        </mxCell>
        <mxCell id="aVoNAQ4Fh9zmjPNUE42r-11" value="&lt;font style=&quot;font-size: 24px&quot;&gt;Name&lt;/font&gt;" style="text;html=1;strokeColor=none;fillColor=none;align=center;verticalAlign=middle;whiteSpace=wrap;rounded=0;" parent="kSZy8nckx7b0mnoyBmOj-1" vertex="1">
          <mxGeometry x="280.5" y="254" width="60" height="30" as="geometry" />
        </mxCell>
        <mxCell id="aVoNAQ4Fh9zmjPNUE42r-12" value="" style="rounded=1;whiteSpace=wrap;html=1;fontSize=24;" parent="kSZy8nckx7b0mnoyBmOj-1" vertex="1">
          <mxGeometry x="280.5" y="296" width="290" height="30" as="geometry" />
        </mxCell>
      </root>
    </mxGraphModel>
  </diagram>
  <diagram id="2mVr5C2-ZkqJwbUjcbCu" name="Preview (list-page)">
    <mxGraphModel dx="2128" dy="547" grid="1" gridSize="10" guides="1" tooltips="1" connect="1" arrows="1" fold="1" page="1" pageScale="1" pageWidth="850" pageHeight="1100" math="0" shadow="0">
      <root>
        <mxCell id="OvAYYiTgAuqcsTegccox-0" />
        <mxCell id="OvAYYiTgAuqcsTegccox-1" parent="OvAYYiTgAuqcsTegccox-0" />
        <mxCell id="SKqtHRzv9nJQcz6skr7b-5" value="" style="rounded=1;whiteSpace=wrap;html=1;fontSize=48;" parent="OvAYYiTgAuqcsTegccox-1" vertex="1">
          <mxGeometry x="60" y="89" width="160" height="200" as="geometry" />
        </mxCell>
        <mxCell id="SKqtHRzv9nJQcz6skr7b-8" value="" style="rounded=1;whiteSpace=wrap;html=1;fontSize=48;" parent="OvAYYiTgAuqcsTegccox-1" vertex="1">
          <mxGeometry x="260" y="89" width="160" height="200" as="geometry" />
        </mxCell>
        <mxCell id="SKqtHRzv9nJQcz6skr7b-9" value="" style="rounded=1;whiteSpace=wrap;html=1;fontSize=48;" parent="OvAYYiTgAuqcsTegccox-1" vertex="1">
          <mxGeometry x="660" y="89" width="160" height="200" as="geometry" />
        </mxCell>
        <mxCell id="SKqtHRzv9nJQcz6skr7b-10" value="" style="rounded=1;whiteSpace=wrap;html=1;fontSize=48;" parent="OvAYYiTgAuqcsTegccox-1" vertex="1">
          <mxGeometry x="460" y="89" width="160" height="200" as="geometry" />
        </mxCell>
        <mxCell id="SKqtHRzv9nJQcz6skr7b-11" value="" style="rounded=1;whiteSpace=wrap;html=1;fontSize=48;" parent="OvAYYiTgAuqcsTegccox-1" vertex="1">
          <mxGeometry x="60" y="329" width="160" height="200" as="geometry" />
        </mxCell>
        <mxCell id="SKqtHRzv9nJQcz6skr7b-12" value="" style="rounded=1;whiteSpace=wrap;html=1;fontSize=48;" parent="OvAYYiTgAuqcsTegccox-1" vertex="1">
          <mxGeometry x="260" y="329" width="160" height="200" as="geometry" />
        </mxCell>
        <mxCell id="SKqtHRzv9nJQcz6skr7b-13" value="" style="rounded=1;whiteSpace=wrap;html=1;fontSize=48;" parent="OvAYYiTgAuqcsTegccox-1" vertex="1">
          <mxGeometry x="660" y="329" width="160" height="200" as="geometry" />
        </mxCell>
        <mxCell id="SKqtHRzv9nJQcz6skr7b-14" value="" style="rounded=1;whiteSpace=wrap;html=1;fontSize=48;" parent="OvAYYiTgAuqcsTegccox-1" vertex="1">
          <mxGeometry x="460" y="329" width="160" height="200" as="geometry" />
        </mxCell>
        <mxCell id="SKqtHRzv9nJQcz6skr7b-15" value="" style="rounded=1;whiteSpace=wrap;html=1;fontSize=48;" parent="OvAYYiTgAuqcsTegccox-1" vertex="1">
          <mxGeometry x="60" y="569" width="160" height="200" as="geometry" />
        </mxCell>
        <mxCell id="SKqtHRzv9nJQcz6skr7b-16" value="" style="rounded=1;whiteSpace=wrap;html=1;fontSize=48;" parent="OvAYYiTgAuqcsTegccox-1" vertex="1">
          <mxGeometry x="260" y="569" width="160" height="200" as="geometry" />
        </mxCell>
        <mxCell id="SKqtHRzv9nJQcz6skr7b-17" value="" style="rounded=1;whiteSpace=wrap;html=1;fontSize=48;" parent="OvAYYiTgAuqcsTegccox-1" vertex="1">
          <mxGeometry x="660" y="569" width="160" height="200" as="geometry" />
        </mxCell>
        <mxCell id="SKqtHRzv9nJQcz6skr7b-18" value="" style="rounded=1;whiteSpace=wrap;html=1;fontSize=48;" parent="OvAYYiTgAuqcsTegccox-1" vertex="1">
          <mxGeometry x="460" y="569" width="160" height="200" as="geometry" />
        </mxCell>
        <mxCell id="YbR4sYg8Qu17yyoKxv5M-8" value="Welcome, &amp;lt;name&amp;gt;!" style="text;html=1;strokeColor=none;fillColor=none;align=center;verticalAlign=middle;whiteSpace=wrap;rounded=0;fontSize=36;" parent="OvAYYiTgAuqcsTegccox-1" vertex="1">
          <mxGeometry x="52" y="30" width="340" height="30" as="geometry" />
        </mxCell>
        <mxCell id="YbR4sYg8Qu17yyoKxv5M-9" value="Logout" style="text;html=1;strokeColor=none;fillColor=none;align=center;verticalAlign=middle;whiteSpace=wrap;rounded=0;fontSize=36;" parent="OvAYYiTgAuqcsTegccox-1" vertex="1">
          <mxGeometry x="720" y="30" width="60" height="30" as="geometry" />
        </mxCell>
        <mxCell id="qBNA1WxcWMqilAnFSTIf-1" value="&amp;lt;Logo&amp;gt;" style="text;html=1;strokeColor=none;fillColor=none;align=center;verticalAlign=middle;whiteSpace=wrap;rounded=0;fontSize=36;" parent="OvAYYiTgAuqcsTegccox-1" vertex="1">
          <mxGeometry x="-150" y="30" width="90" height="30" as="geometry" />
        </mxCell>
        <mxCell id="qBNA1WxcWMqilAnFSTIf-2" value="&lt;font style=&quot;font-size: 18px&quot;&gt;All Lists&lt;/font&gt;" style="text;html=1;strokeColor=none;fillColor=none;align=center;verticalAlign=middle;whiteSpace=wrap;rounded=0;" parent="OvAYYiTgAuqcsTegccox-1" vertex="1">
          <mxGeometry x="-140" y="89" width="80" height="30" as="geometry" />
        </mxCell>
        <mxCell id="qBNA1WxcWMqilAnFSTIf-3" value="&lt;font style=&quot;font-size: 18px&quot;&gt;Settings&lt;/font&gt;" style="text;html=1;strokeColor=none;fillColor=none;align=center;verticalAlign=middle;whiteSpace=wrap;rounded=0;" parent="OvAYYiTgAuqcsTegccox-1" vertex="1">
          <mxGeometry x="-140" y="130" width="80" height="30" as="geometry" />
        </mxCell>
        <mxCell id="qBNA1WxcWMqilAnFSTIf-4" value="&lt;font style=&quot;font-size: 18px&quot;&gt;About&lt;/font&gt;" style="text;html=1;strokeColor=none;fillColor=none;align=center;verticalAlign=middle;whiteSpace=wrap;rounded=0;" parent="OvAYYiTgAuqcsTegccox-1" vertex="1">
          <mxGeometry x="-140" y="174" width="80" height="30" as="geometry" />
        </mxCell>
        <mxCell id="qBNA1WxcWMqilAnFSTIf-5" value="&lt;font style=&quot;font-size: 18px&quot;&gt;User Settings&lt;br&gt;&lt;/font&gt;" style="text;html=1;strokeColor=none;fillColor=none;align=center;verticalAlign=middle;whiteSpace=wrap;rounded=0;" parent="OvAYYiTgAuqcsTegccox-1" vertex="1">
          <mxGeometry x="-164" y="216" width="130" height="30" as="geometry" />
        </mxCell>
        <mxCell id="7uqGA5HPD8CKYKC5nwcu-0" value="" style="shape=image;verticalLabelPosition=bottom;labelBackgroundColor=default;verticalAlign=top;aspect=fixed;imageAspect=0;image=data:image/png,iVBORw0KGgoAAAANSUhEUgAAAZgAAABcCAYAAABTNaNDAAAWKUlEQVR4nO2de2wU1dvHvzNly7a0BYrAclOhUINQKASiYrgEg0QxEtBQwAgUS4GCoKEgEoRAIHI3pihQQRAkhQptCLrYgLGtQZCEmyAKLcbAQgvIHduy2+68f/Buf73sZWb2zJyZ6fNJTgLdmXOemWfOfOfcniMAkEAQBEEQjBF5G0AQBEFYExIYgiAIQhNIYAiCIAhNIIEhCIIgNIEEhiAIgtAEEhiCIAhCE0hgCIIgCE0ggSEIgiA0gQSGIAiC0AQSGIKwMGlpaZAkSVYqLy9HWloab5MtjcPhwIkTJ2T7xApIZk5yOXHihORwOLjba/WUlpYm7d27V5ZPysvLpbS0NO42mz0lJydLmZmZsuuCEpxOJ/frM3PSwi9Op1PKzMzkfm0yE3cDZKfFixczdRTv67FKYs3ixYuloUOHcr8uM6TY2Fjm9z8YsbGx3K/Z6Il8US9xN4C7w1JTU6X4+Hju12mWFB8fL6WmpuriF97XatSkx/0PRmFhIfd7YKTEG97XHygJ//8PrkybNg3Z2dmKzjl//jx++OEHHD9+HCtWrECvXr00sa2kpASJiYma5G0GJIP2AwuCwNsE3bDb7aisrORtRkiioqJQVVXF2wzNMWqdaIgR6oghBCaUw8aMGRMyj927dyM6OlpV+TU1NSgrK0Pnzp2DHmcEh+nB1atXQ94LI+ByubBkyRJs376dtymaYJYXWUPWr1+PzMxM3mYwZd26dZg3bx5vM1TB873FXWCSk5Nx+vTpgL97vV689dZbIfNJTU3Fm2++qcqGrKwsnDx5Ejt27Ah6XL9+/XDmzBlVZZgJs73YrCr8ZvNDXazmEzP74ty5c+jTpw+XsrkITGFhIYYOHRr0GDmtlobk5+crPidQOaHysloFkuMTo1NUVIRhw4bxNiMsWL7IKisrVbXqhwwZgqKiorDLnzRpEnbt2hV2Prxxu92w2Wy8zWCC3j7RTWA+/fRTLFy4UPbxBQUF2Lx5s6Iynn/+eaxcuVL28aFEbOTIkZg+fXpAMbGSyJj5C60hq1atwscff8zbDEVocf9dLhd69OihaPymRYsWEEURDx8+ZGaHWeuJlepEQ/TyiW4Co8ZZWrdilORvs9mQm5vr9zezViDAupXIbD7RSmC6d++uaOA9JiYGgiAwFRgf8fHxuHv3LvN8WdO6dWvcuXOHtxmaUlxcrEuPhS4r+e12ux7FAADmz58v6yF2u92K8vV4PJg0aRJycnIa/WbGl7Tdbjel3XIx07WZydZwuHPnDjp16sTbjJBYXVyAJ92gevhCc4E5deqU6imWar5CS0tLMXXq1KDHjBs3DikpKYrzfvjwIXJzczF27NhGv0mSBIfDoThPvXE4HJAkyRTTXsNFkiScOnWKtxkBycnJaTLi4sPlcvE2ISCShcKzyMHlcml+zcy7yFgaW1paivnz5zPLL1wGDhyIRYsWhTzOiN0zZ8+eRVJSEm8z6uF2u7Fy5UqsWbPGb4vS4/FAFNV9Axl13EzPAWOjdZHVhbcfGtKUhCUULH1j6GCXenatyWHUqFG8TVANr2mKwbh48SJWr16Nmpoav7+bob9eKVaZjUQQcmAqMKy/Aoy22K9v376yjqOvodDcu3cPycnJ8Hg8AQWmY8eOyMvLQ3V1tc7WEVojSZLicVAt6NWrlyHssCq6tGDUjHcA6maRGQVJklBYWMjbDEMhSRLGjx+P1q1bo127diGPr66uxrhx4xAVFYXKykomws1T/OnDoz42mw3r1q3jasP58+epVakhzMZgli1bhiVLljT6uz+RaN26NbZt2+a3r8+IopKUlITly5erOnf58uVYunQpY4vkU/elxvsFZ7fb4fF4VJ0rCIAoRqCwsBCDBg2ScXzgfmRe/f96338jj8E0RG+fmCUcEi9YxZVjJjANK8+XX34JADh8+HDAc9q1a4c+ffpg1qxZAIC5c+fiypUrLMxhSl5eXlgVYOrUqVziZaWmpuLrr7+u/T9PgamoqEBsbGzY+dhsNlkPfih/8RAZEpjA6OmPvXv3Yty4cbqVZ1ZY+MTQg/wEQRCEeWEiMKtXr270t8OHDwdtvQDAzZs3ceTIEQDGbb0A4St53VaEnvAq1x8//vgjk3wCTQgwOsXFxbxNMDQsYp/JhVov+hF2F1nDZr8Rx1BYoSaYZl0yMjKwadMmRtYEx193DM8usoiICGZ5VVdXM+kC08sfvO67mbrI6qJldxnvcUizMX78eOzdu1f1+WEJTEpKCvbs2VP7f17iIggCunbtipkzZ+LZZ5+t/bvb7cY777zDrJyMjAyMGDEirDz06GsOVIlIYMI/Vik9evTApUuXNMs/GCQw9eHpCzOTmJiIkpISVeeGJTBGaL1kZWWFnA1SUFCAnTt3oqKiIuzyOnfujKysLNXnay0ww4cPx08//eT3N54CY7PZ4PV6meTldrtDCpZRBObff/9FmzZtNMs/GCQw9eHpCzNz+/ZtPPXUU6rOVS0w/l5WeghMuN1UPuRuZBYOkZGRfpuXWlWgUALCU2AOHDjgN4abUgRBkLXwUsk91moHRt7dMSQw9eHtDzMTFxen6plQNcjPYrqpUrp3785MXACojnGlBFoh/D/eeOONsO65IAgQBEGTbWvnzZvH5ZkmCLPw4MEDVeepqvFqC1NLfn4+1q5dq0m+hD54vd6wW7jffvstVq1axcii+rB+prds2cI0P4LgjZpnWrHABCskPz/fdF+C+fn56NKli2b5sxp3MDNerxcZGRnIy8tTdb4oirh//z5SUlI0HS9hKQrp6enM8mpqOJ1OOJ1O3mYQDVDzTCseg5Hbj+nr950wYYJio+oiCILqF5NStBhDat++faOtn5vSGExOTg62b9/eaOJBTEwMHj16FPTciIgIbN68GZMnT1Y8C03tPWbhmwcPHhjiQ8usYzA+WNYTo/jE7Cj1iWYCU5eqqipVQvP555/j6aefVnxeuLAWmkWLFmHgwIH1/qaFyBhNYCRJQlRUVG38MUEQkJCQgIyMDMyYMQOiKKK8vBwHDx7E/v37UVlZiQcPHiAhIQFt2rQJGK9ODrwEJjo6Gv/991/I40pLSzX3R15eHpYuXapIYGJjY1FRUYG//vpLQ8ueTBkOBcs6QgP8bGjRooWi2biKBEZu5fGH0pe2KIrYv3+/qrLC5fr167Xx0VgQERGBffv21fub1QVGkiQ8/fTTuH79eu3f2rVrB5fLherqajRv3lzT8tXeX6UVqCFFRUUYMmRIyOMEQUBcXJzqcuQyffp0rFmzRvbx77//Pnbu3KmhRU9aE3KeRRIY41FcXIyhQ4fKPr6ZkswnT56s2CC1+As/oxcdO3Zkml9NTQ0kSTLcLn5aUVNTg6NHj+LGjRv1/v79998jIiKC6aJL1kyePDms1f1yxMXH/fv3VZejFVlZWWGt85JDw+ciEA6HA+Xl5ZraQihDyfMNKGzBhPMVoLQFI3eG19tvvx0yPtX69evRrVs3ReVrMR5T95pYio1vrU2oGEtaf8VdvXoVCQkJkCSpdnKD3W5HYmIiTp8+rWnZDQnn/oZzrtx7LAhCk/2qrqioQHR0tKxjWdSThIQElJaWKj7Pyh+E4Tx7Su6LohaMEZET/NC3doLHtORAZc6ePRsbN25kUgbv4H1Hjx4N+GWjtkuVIFgRbovMah8CegqnIQWmQ4cOvE0ICzlC9vrrrzMTGJ54vd6A4nLo0CGdrSGIxvTr14+3CU0WQ+4H07NnT94maE7Lli15m6A5L7zwAm8TCAJ2u523CU0WQ7ZgnnnmGd4mKGLDhg3o2rWronOSk5M1skY5kiTh0aNHOHz4MI4dO4YrV65AFEUMHz4cgwcPRmJiYr0wL16vF6IooqSkBElJSfXyEgQBvXr1wsmTJw09mE80HVq1asXbhCaL5gKjZspvZWWlRtZog1JxASB7kFMPPB4P2rZti+rq6nr9zbm5uRBFEWfOnEGvXr0AoHY23OPHj9G7d+9GgSfnz5+PZcuWISIiwtKDpIR5UDKpgGALU4FZvnw5k9lCTqcTKSkpDCwyLvfu3eNWtm+G161bt9C5c2dIkhRwINPr9aJPnz6w2WwYOXIkdu7cibZt28Lr9dY7RxRFHDt2DP379wdg7Rk4hLk4c+YMBg0axNuMJglTgWE1FVXvYJo8ULK6mjU+Qdm2bZvsWGnV1dUoLi5Gfn6+35l7kZGRSEpK0iVKNUEowYjrjZoKTN4G3333neG3St6xYwdvE+qh97qQuqxZswY9e/bEJ598IvscSZLw4MEDvPfee41+s9vtuHv3ruar8wlCDRQ4kx9MFlpqvSgxFGVlZcjMzPQb4kPt2hcl16SmjO7du+Py5cuKz/OH3Hn6NTU16Nmzp6pFZ4EQRRFut9twXWJmWGipB1FRUYpC30RHR+syBirnPuXm5jLrKlezlsXnIyuug9FroaUigbl165bfrTNv3LiBGTNmyC5ULrz2a9Eq6kBdeMQii4iIYF5Zrl27BofDwTRPFqi9v+FsDwsAgwYNwtGjR1WfzxKKpvw/rCYSvHj55Zfx66+/yj5eURfZhQsX/P69bdu2SrKRjdyYRbz5448/eJsgCy1E7eLFi8zz5Em4vjxz5gwjSwjCeCh9vpmF69dqDCYuLg7ffPONJnk3JNxrULK9gFVaMAMGDMBvv/3GNM9Q+K4h2D2k/WCoBVMXo/jE7Cj1CbMpP/4Gf1mgx4yyQ4cOMRHIuXPnysqHV+XVopvg7NmzuHz5MiRJqt33hSVerxc1NTW4du0a8vLyMGPGDHTo0AE9evTAggULkJ2d3WgtDm/0CMNvZaqqqpjPsiSf8IHphmNatWK0HIvhYTOvHS2bNWum6RbOvj1OunTpglmzZmHChAlhfTW63W6kp6cjJycnqIgIgoABAwZg9OjRWLhwIQRB4NqCAZ5sv8x722SztmB41Q8iONnZ2Zg+fbqicxQLTLCKo+VU5ZiYGOzatYtpnnpMrfYnNFYVGH8899xzSExMxJYtW9CmTRs0ayZ/6VXLli1DbqvckCFDhuDIkSOKyvGhpgIFg/cLjQSmPrz9YXbU+EVxFxnLCqiER48eYcyYMUhPT2+0v7tSJEnCnDlzGFkWGF94FaOgZGdDVly8eBEHDx5Ex44d0bx5czRv3hzNmjVDQkIC/vzzz6DbLSgVF+DJjntqgxvyerYJwuio7hGAwhYM8GTfbn9jI8FaBP6+5MNpQSQnJ2Pp0qWKz8vLy2PeEvLH2rVr0b17d7+/8fpCq6ioQKtWrZiNWSxcuBA///yz6kF+URTRokULvPbaa1i0aBHi4+PRoUOH2mgAaoNliqKo+Brj4uKYf7Xz/mKmFkx9ePvDzOgqMMCTLY0XLFigqtCGGD0KgFKCjb+sWbMGH330kWZlB6tEvhAxBw4cwLp163D8+HHFlU4URTx8+BCCIARdue8LiunxeFBZWYn09HQUFBToFgZISVeg1oseeb3YSGAaQyKjjF9++UXxNsl1UT2LbOvWraoLbcrwvm+CIODVV19FRkaG4rhhoiiiefPmsNvtIcPC+F4SNpsNcXFx2Lx5M6ZMmYL27dujVatWFG2ZIEzAF198Edb5qgWmpKSEXhAqKCkp0TR/QRBw7ty5oMdER0dj4sSJqKqqwiuvvILIyMiQ+Y4YMQKlpaWqxkWAJ3tyfPbZZ7h+/Tpu374Nt9uNx48f4/Hjx7hw4QKmTZuG0aNHo2PHjroGzAx1r1hA9UQeerxTyBfyKSkpwd69e8PKQ3UXWV3CbXYasYusa9eu2LBhQ6O/l5eXY+bMmX7PiYyMxPr169G5c2e/v+v5cBcVFTVq2srpPvN4PKiqqoIgCLV7aKiZkRUO//zzD1asWIHt27erzkNOF5neLxu9u2fM1EVmdV+YDVZd+RRbPQD+xAUAHA5HwDGWrVu3BhSX3NxcZrbJYejQoYqOFwShtgusZcuWiIuLQ7NmzXQXFwDo1KmTYvuVorc/CGMxdepU3iYYGlbjxEwEJioqikU2psJfqPtAiwpdLheXDdRcLpfuZbIgIiICEydO1LQMq29oZyZ4dFtt374dy5cv171cM8DyvlALhiAIgtAEJmMwPtT2axptDIZlaBreg4rr1q3DvHnzAJiv31ntOpjIyMig4w48faKnD8wwBsO7fhQWFmreHWs2WPqEewuG5eZXRsLj8aB37968zUBmZib3SqwWJQEKRVGEKIp48cUXFW2wpTdaBAQ1I+HEi2PJsGHDDGGHVdF/BLcOTqcTX331FU8TNEPO1F8iODdv3kR0dHTIGWG+CQoxMTEoLi7WJIw/K3zPhdlak1Yn3F0erQLr+sFUYARBULTvQjjiEqobK5xut1OnTqF///6qz+f9EvNH3759TbcZls1mg8fjgSRJqKqqQkFBAbZs2YKCggLY7XaMGTMGAwcOxAcffCArPyPsceKjKb/QNm3axNsEogFavbOYjsHUJVTluXPnjqo9ZOx2O+bMmYOXXnop6HH79u3D7t27FefvI5xxGCMKDADk5ORg/PjxvM3QnT179mDChAm8zQiIVkJjxDGY06dPh/XxpjUOhwNlZWW8zdAFPXyhmcD46NSpU8jpskpaG0pe/GPHjlVdedUIjFGFpSFN5cv57NmzGDVqFK5du8bblJBo4ROXy4UuXbooPi8mJkYTgTFL/QCsX0eioqKYb+rmD80FBnjS6qisrAz4+99//41Fixbh8ePHQfNR+tL3eDwYN26conPUlmWmygOE9okVMJNPrPxCM5Mf6kI+CR9dBvlDKWW3bt2wZ88eAMCUKVNw//79er9nZ2ejbdu2isu12WyKz1GDGSuQLxyMVSuR2Xzis9dq/jCbH+piVZ+sWrVKt7J0m0UmCALeffdd7Ny5M+hxO3bsqP13SkoK3G63KnFRgy/Iopzw1B6PxxIzxaxYieilxh8z+6AhVvgQKyoqwrBhw3QvV5cuMn/8/vvvSEpK0rycQOM7DocjrNksVqpAPsxciazoDx9m8ku/fv1MN1tRCcnJyTh9+jRvM2RhBF9wW2jZp08fLuUKgoAPP/wwYDBLOaxfv56hRcbBqtdldswSU87lcnF/oWmNma7PCLZya8HUxSxfaFb+Sq6LWSYA6DUTxghMmzYN2dnZvM3wS1OpFw25dOkSevTowdsMv6SnpxtmEbtkxMQb3tdvtFRYWMjVH6mpqdzvgVGTXsTHx3O/VjOk+Ph4KTU1VXN/8L5OmYm7AUFTbGys5o4ymcO4Jz2JjY3lfr1mSYsXL2Z67xcvXsz9mqyQmrhPuBsQMmVmZkpOp5OpoyRJkjIzM7lfm9lTZmYmc7/44H1tVkhpaWmy73d5ebmUlpbG3WYrJ4fDIZ04caIp1QHuBoSVBg8eLG3cuFFyOp1SWVmZ5Ha7pZqaGsntdktlZWXS7NmzJbvdzt3Oppbsdrs0e/ZsqaysTLp7964kSZJ09+5d6ejRo5LT6ZSWLVvG3UZKlChpmwwxyE8QBEFYD+77wRAEQRDWhASGIAiC0AQSGIIgCEITSGAIgiAITSCBIQiCIDSBBIYgCILQBBIYgiAIQhNIYAiCIAhNIIEhCIIgNOH/AI/GNh0ImhAtAAAAAElFTkSuQmCC;" vertex="1" parent="OvAYYiTgAuqcsTegccox-1">
          <mxGeometry x="406.95" y="20" width="266.09" height="60" as="geometry" />
        </mxCell>
      </root>
    </mxGraphModel>
  </diagram>
  <diagram name="Edit (list-page)" id="nFvOvKcV1XoY3_MYNKZb">
    <mxGraphModel dx="2128" dy="547" grid="1" gridSize="10" guides="1" tooltips="1" connect="1" arrows="1" fold="1" page="1" pageScale="1" pageWidth="850" pageHeight="1100" math="0" shadow="0">
      <root>
        <mxCell id="0Lc4bkA0Kibh3pHjnK10-0" />
        <mxCell id="0Lc4bkA0Kibh3pHjnK10-1" parent="0Lc4bkA0Kibh3pHjnK10-0" />
        <mxCell id="0Lc4bkA0Kibh3pHjnK10-6" value="" style="rounded=1;whiteSpace=wrap;html=1;fontSize=48;" parent="0Lc4bkA0Kibh3pHjnK10-1" vertex="1">
          <mxGeometry x="60" y="89" width="160" height="200" as="geometry" />
        </mxCell>
        <mxCell id="0Lc4bkA0Kibh3pHjnK10-7" value="" style="rounded=1;whiteSpace=wrap;html=1;fontSize=48;" parent="0Lc4bkA0Kibh3pHjnK10-1" vertex="1">
          <mxGeometry x="260" y="89" width="160" height="200" as="geometry" />
        </mxCell>
        <mxCell id="0Lc4bkA0Kibh3pHjnK10-8" value="" style="rounded=1;whiteSpace=wrap;html=1;fontSize=48;" parent="0Lc4bkA0Kibh3pHjnK10-1" vertex="1">
          <mxGeometry x="660" y="89" width="160" height="200" as="geometry" />
        </mxCell>
        <mxCell id="0Lc4bkA0Kibh3pHjnK10-9" value="" style="rounded=1;whiteSpace=wrap;html=1;fontSize=48;" parent="0Lc4bkA0Kibh3pHjnK10-1" vertex="1">
          <mxGeometry x="460" y="89" width="160" height="200" as="geometry" />
        </mxCell>
        <mxCell id="0Lc4bkA0Kibh3pHjnK10-10" value="" style="rounded=1;whiteSpace=wrap;html=1;fontSize=48;" parent="0Lc4bkA0Kibh3pHjnK10-1" vertex="1">
          <mxGeometry x="60" y="329" width="160" height="200" as="geometry" />
        </mxCell>
        <mxCell id="0Lc4bkA0Kibh3pHjnK10-11" value="" style="rounded=1;whiteSpace=wrap;html=1;fontSize=48;" parent="0Lc4bkA0Kibh3pHjnK10-1" vertex="1">
          <mxGeometry x="260" y="329" width="160" height="200" as="geometry" />
        </mxCell>
        <mxCell id="0Lc4bkA0Kibh3pHjnK10-12" value="" style="rounded=1;whiteSpace=wrap;html=1;fontSize=48;" parent="0Lc4bkA0Kibh3pHjnK10-1" vertex="1">
          <mxGeometry x="660" y="329" width="160" height="200" as="geometry" />
        </mxCell>
        <mxCell id="0Lc4bkA0Kibh3pHjnK10-13" value="" style="rounded=1;whiteSpace=wrap;html=1;fontSize=48;" parent="0Lc4bkA0Kibh3pHjnK10-1" vertex="1">
          <mxGeometry x="460" y="329" width="160" height="200" as="geometry" />
        </mxCell>
        <mxCell id="0Lc4bkA0Kibh3pHjnK10-14" value="" style="rounded=1;whiteSpace=wrap;html=1;fontSize=48;" parent="0Lc4bkA0Kibh3pHjnK10-1" vertex="1">
          <mxGeometry x="60" y="569" width="160" height="200" as="geometry" />
        </mxCell>
        <mxCell id="0Lc4bkA0Kibh3pHjnK10-15" value="" style="rounded=1;whiteSpace=wrap;html=1;fontSize=48;" parent="0Lc4bkA0Kibh3pHjnK10-1" vertex="1">
          <mxGeometry x="260" y="569" width="160" height="200" as="geometry" />
        </mxCell>
        <mxCell id="0Lc4bkA0Kibh3pHjnK10-16" value="" style="rounded=1;whiteSpace=wrap;html=1;fontSize=48;" parent="0Lc4bkA0Kibh3pHjnK10-1" vertex="1">
          <mxGeometry x="660" y="569" width="160" height="200" as="geometry" />
        </mxCell>
        <mxCell id="0Lc4bkA0Kibh3pHjnK10-17" value="" style="rounded=1;whiteSpace=wrap;html=1;fontSize=48;" parent="0Lc4bkA0Kibh3pHjnK10-1" vertex="1">
          <mxGeometry x="460" y="569" width="160" height="200" as="geometry" />
        </mxCell>
        <mxCell id="0Lc4bkA0Kibh3pHjnK10-22" value="Welcome, &amp;lt;name&amp;gt;!" style="text;html=1;strokeColor=none;fillColor=none;align=center;verticalAlign=middle;whiteSpace=wrap;rounded=0;fontSize=36;" parent="0Lc4bkA0Kibh3pHjnK10-1" vertex="1">
          <mxGeometry x="52" y="30" width="340" height="30" as="geometry" />
        </mxCell>
        <mxCell id="0Lc4bkA0Kibh3pHjnK10-23" value="Logout" style="text;html=1;strokeColor=none;fillColor=none;align=center;verticalAlign=middle;whiteSpace=wrap;rounded=0;fontSize=36;" parent="0Lc4bkA0Kibh3pHjnK10-1" vertex="1">
          <mxGeometry x="720" y="30" width="60" height="30" as="geometry" />
        </mxCell>
        <mxCell id="0Lc4bkA0Kibh3pHjnK10-24" value="&amp;lt;Logo&amp;gt;" style="text;html=1;strokeColor=none;fillColor=none;align=center;verticalAlign=middle;whiteSpace=wrap;rounded=0;fontSize=36;" parent="0Lc4bkA0Kibh3pHjnK10-1" vertex="1">
          <mxGeometry x="-150" y="30" width="90" height="30" as="geometry" />
        </mxCell>
        <mxCell id="0Lc4bkA0Kibh3pHjnK10-25" value="&lt;font style=&quot;font-size: 18px&quot;&gt;All Lists&lt;/font&gt;" style="text;html=1;strokeColor=none;fillColor=none;align=center;verticalAlign=middle;whiteSpace=wrap;rounded=0;" parent="0Lc4bkA0Kibh3pHjnK10-1" vertex="1">
          <mxGeometry x="-140" y="89" width="80" height="30" as="geometry" />
        </mxCell>
        <mxCell id="0Lc4bkA0Kibh3pHjnK10-26" value="&lt;font style=&quot;font-size: 18px&quot;&gt;Settings&lt;/font&gt;" style="text;html=1;strokeColor=none;fillColor=none;align=center;verticalAlign=middle;whiteSpace=wrap;rounded=0;" parent="0Lc4bkA0Kibh3pHjnK10-1" vertex="1">
          <mxGeometry x="-140" y="130" width="80" height="30" as="geometry" />
        </mxCell>
        <mxCell id="0Lc4bkA0Kibh3pHjnK10-27" value="&lt;font style=&quot;font-size: 18px&quot;&gt;About&lt;/font&gt;" style="text;html=1;strokeColor=none;fillColor=none;align=center;verticalAlign=middle;whiteSpace=wrap;rounded=0;" parent="0Lc4bkA0Kibh3pHjnK10-1" vertex="1">
          <mxGeometry x="-140" y="174" width="80" height="30" as="geometry" />
        </mxCell>
        <mxCell id="jf6hSIRLswdax1vqZL5g-28" value="" style="rounded=1;whiteSpace=wrap;html=1;fontSize=18;" parent="0Lc4bkA0Kibh3pHjnK10-1" vertex="1">
          <mxGeometry x="90" y="119" width="690" height="621" as="geometry" />
        </mxCell>
        <mxCell id="jf6hSIRLswdax1vqZL5g-29" value="&lt;font style=&quot;font-size: 48px&quot;&gt;Afternoon tasks&lt;/font&gt;" style="text;html=1;strokeColor=none;fillColor=none;align=center;verticalAlign=middle;whiteSpace=wrap;rounded=0;fontSize=18;" parent="0Lc4bkA0Kibh3pHjnK10-1" vertex="1">
          <mxGeometry x="130" y="160" width="380" height="30" as="geometry" />
        </mxCell>
        <mxCell id="jf6hSIRLswdax1vqZL5g-78" value="" style="shape=image;verticalLabelPosition=bottom;labelBackgroundColor=default;verticalAlign=top;aspect=fixed;imageAspect=0;image=data:image/png,iVBORw0KGgoAAAANSUhEUgAAAZgAAABcCAYAAABTNaNDAAAWKUlEQVR4nO2de2wU1dvHvzNly7a0BYrAclOhUINQKASiYrgEg0QxEtBQwAgUS4GCoKEgEoRAIHI3pihQQRAkhQptCLrYgLGtQZCEmyAKLcbAQgvIHduy2+68f/Buf73sZWb2zJyZ6fNJTgLdmXOemWfOfOfcniMAkEAQBEEQjBF5G0AQBEFYExIYgiAIQhNIYAiCIAhNIIEhCIIgNIEEhiAIgtAEEhiCIAhCE0hgCIIgCE0ggSEIgiA0gQSGIAiC0AQSGIKwMGlpaZAkSVYqLy9HWloab5MtjcPhwIkTJ2T7xApIZk5yOXHihORwOLjba/WUlpYm7d27V5ZPysvLpbS0NO42mz0lJydLmZmZsuuCEpxOJ/frM3PSwi9Op1PKzMzkfm0yE3cDZKfFixczdRTv67FKYs3ixYuloUOHcr8uM6TY2Fjm9z8YsbGx3K/Z6Il8US9xN4C7w1JTU6X4+Hju12mWFB8fL6WmpuriF97XatSkx/0PRmFhIfd7YKTEG97XHygJ//8PrkybNg3Z2dmKzjl//jx++OEHHD9+HCtWrECvXr00sa2kpASJiYma5G0GJIP2AwuCwNsE3bDb7aisrORtRkiioqJQVVXF2wzNMWqdaIgR6oghBCaUw8aMGRMyj927dyM6OlpV+TU1NSgrK0Pnzp2DHmcEh+nB1atXQ94LI+ByubBkyRJs376dtymaYJYXWUPWr1+PzMxM3mYwZd26dZg3bx5vM1TB873FXWCSk5Nx+vTpgL97vV689dZbIfNJTU3Fm2++qcqGrKwsnDx5Ejt27Ah6XL9+/XDmzBlVZZgJs73YrCr8ZvNDXazmEzP74ty5c+jTpw+XsrkITGFhIYYOHRr0GDmtlobk5+crPidQOaHysloFkuMTo1NUVIRhw4bxNiMsWL7IKisrVbXqhwwZgqKiorDLnzRpEnbt2hV2Prxxu92w2Wy8zWCC3j7RTWA+/fRTLFy4UPbxBQUF2Lx5s6Iynn/+eaxcuVL28aFEbOTIkZg+fXpAMbGSyJj5C60hq1atwscff8zbDEVocf9dLhd69OihaPymRYsWEEURDx8+ZGaHWeuJlepEQ/TyiW4Co8ZZWrdilORvs9mQm5vr9zezViDAupXIbD7RSmC6d++uaOA9JiYGgiAwFRgf8fHxuHv3LvN8WdO6dWvcuXOHtxmaUlxcrEuPhS4r+e12ux7FAADmz58v6yF2u92K8vV4PJg0aRJycnIa/WbGl7Tdbjel3XIx07WZydZwuHPnDjp16sTbjJBYXVyAJ92gevhCc4E5deqU6imWar5CS0tLMXXq1KDHjBs3DikpKYrzfvjwIXJzczF27NhGv0mSBIfDoThPvXE4HJAkyRTTXsNFkiScOnWKtxkBycnJaTLi4sPlcvE2ISCShcKzyMHlcml+zcy7yFgaW1paivnz5zPLL1wGDhyIRYsWhTzOiN0zZ8+eRVJSEm8z6uF2u7Fy5UqsWbPGb4vS4/FAFNV9Axl13EzPAWOjdZHVhbcfGtKUhCUULH1j6GCXenatyWHUqFG8TVANr2mKwbh48SJWr16Nmpoav7+bob9eKVaZjUQQcmAqMKy/Aoy22K9v376yjqOvodDcu3cPycnJ8Hg8AQWmY8eOyMvLQ3V1tc7WEVojSZLicVAt6NWrlyHssCq6tGDUjHcA6maRGQVJklBYWMjbDEMhSRLGjx+P1q1bo127diGPr66uxrhx4xAVFYXKykomws1T/OnDoz42mw3r1q3jasP58+epVakhzMZgli1bhiVLljT6uz+RaN26NbZt2+a3r8+IopKUlITly5erOnf58uVYunQpY4vkU/elxvsFZ7fb4fF4VJ0rCIAoRqCwsBCDBg2ScXzgfmRe/f96338jj8E0RG+fmCUcEi9YxZVjJjANK8+XX34JADh8+HDAc9q1a4c+ffpg1qxZAIC5c+fiypUrLMxhSl5eXlgVYOrUqVziZaWmpuLrr7+u/T9PgamoqEBsbGzY+dhsNlkPfih/8RAZEpjA6OmPvXv3Yty4cbqVZ1ZY+MTQg/wEQRCEeWEiMKtXr270t8OHDwdtvQDAzZs3ceTIEQDGbb0A4St53VaEnvAq1x8//vgjk3wCTQgwOsXFxbxNMDQsYp/JhVov+hF2F1nDZr8Rx1BYoSaYZl0yMjKwadMmRtYEx193DM8usoiICGZ5VVdXM+kC08sfvO67mbrI6qJldxnvcUizMX78eOzdu1f1+WEJTEpKCvbs2VP7f17iIggCunbtipkzZ+LZZ5+t/bvb7cY777zDrJyMjAyMGDEirDz06GsOVIlIYMI/Vik9evTApUuXNMs/GCQw9eHpCzOTmJiIkpISVeeGJTBGaL1kZWWFnA1SUFCAnTt3oqKiIuzyOnfujKysLNXnay0ww4cPx08//eT3N54CY7PZ4PV6meTldrtDCpZRBObff/9FmzZtNMs/GCQw9eHpCzNz+/ZtPPXUU6rOVS0w/l5WeghMuN1UPuRuZBYOkZGRfpuXWlWgUALCU2AOHDjgN4abUgRBkLXwUsk91moHRt7dMSQw9eHtDzMTFxen6plQNcjPYrqpUrp3785MXACojnGlBFoh/D/eeOONsO65IAgQBEGTbWvnzZvH5ZkmCLPw4MEDVeepqvFqC1NLfn4+1q5dq0m+hD54vd6wW7jffvstVq1axcii+rB+prds2cI0P4LgjZpnWrHABCskPz/fdF+C+fn56NKli2b5sxp3MDNerxcZGRnIy8tTdb4oirh//z5SUlI0HS9hKQrp6enM8mpqOJ1OOJ1O3mYQDVDzTCseg5Hbj+nr950wYYJio+oiCILqF5NStBhDat++faOtn5vSGExOTg62b9/eaOJBTEwMHj16FPTciIgIbN68GZMnT1Y8C03tPWbhmwcPHhjiQ8usYzA+WNYTo/jE7Cj1iWYCU5eqqipVQvP555/j6aefVnxeuLAWmkWLFmHgwIH1/qaFyBhNYCRJQlRUVG38MUEQkJCQgIyMDMyYMQOiKKK8vBwHDx7E/v37UVlZiQcPHiAhIQFt2rQJGK9ODrwEJjo6Gv/991/I40pLSzX3R15eHpYuXapIYGJjY1FRUYG//vpLQ8ueTBkOBcs6QgP8bGjRooWi2biKBEZu5fGH0pe2KIrYv3+/qrLC5fr167Xx0VgQERGBffv21fub1QVGkiQ8/fTTuH79eu3f2rVrB5fLherqajRv3lzT8tXeX6UVqCFFRUUYMmRIyOMEQUBcXJzqcuQyffp0rFmzRvbx77//Pnbu3KmhRU9aE3KeRRIY41FcXIyhQ4fKPr6ZkswnT56s2CC1+As/oxcdO3Zkml9NTQ0kSTLcLn5aUVNTg6NHj+LGjRv1/v79998jIiKC6aJL1kyePDms1f1yxMXH/fv3VZejFVlZWWGt85JDw+ciEA6HA+Xl5ZraQihDyfMNKGzBhPMVoLQFI3eG19tvvx0yPtX69evRrVs3ReVrMR5T95pYio1vrU2oGEtaf8VdvXoVCQkJkCSpdnKD3W5HYmIiTp8+rWnZDQnn/oZzrtx7LAhCk/2qrqioQHR0tKxjWdSThIQElJaWKj7Pyh+E4Tx7Su6LohaMEZET/NC3doLHtORAZc6ePRsbN25kUgbv4H1Hjx4N+GWjtkuVIFgRbovMah8CegqnIQWmQ4cOvE0ICzlC9vrrrzMTGJ54vd6A4nLo0CGdrSGIxvTr14+3CU0WQ+4H07NnT94maE7Lli15m6A5L7zwAm8TCAJ2u523CU0WQ7ZgnnnmGd4mKGLDhg3o2rWronOSk5M1skY5kiTh0aNHOHz4MI4dO4YrV65AFEUMHz4cgwcPRmJiYr0wL16vF6IooqSkBElJSfXyEgQBvXr1wsmTJw09mE80HVq1asXbhCaL5gKjZspvZWWlRtZog1JxASB7kFMPPB4P2rZti+rq6nr9zbm5uRBFEWfOnEGvXr0AoHY23OPHj9G7d+9GgSfnz5+PZcuWISIiwtKDpIR5UDKpgGALU4FZvnw5k9lCTqcTKSkpDCwyLvfu3eNWtm+G161bt9C5c2dIkhRwINPr9aJPnz6w2WwYOXIkdu7cibZt28Lr9dY7RxRFHDt2DP379wdg7Rk4hLk4c+YMBg0axNuMJglTgWE1FVXvYJo8ULK6mjU+Qdm2bZvsWGnV1dUoLi5Gfn6+35l7kZGRSEpK0iVKNUEowYjrjZoKTN4G3333neG3St6xYwdvE+qh97qQuqxZswY9e/bEJ598IvscSZLw4MEDvPfee41+s9vtuHv3ruar8wlCDRQ4kx9MFlpqvSgxFGVlZcjMzPQb4kPt2hcl16SmjO7du+Py5cuKz/OH3Hn6NTU16Nmzp6pFZ4EQRRFut9twXWJmWGipB1FRUYpC30RHR+syBirnPuXm5jLrKlezlsXnIyuug9FroaUigbl165bfrTNv3LiBGTNmyC5ULrz2a9Eq6kBdeMQii4iIYF5Zrl27BofDwTRPFqi9v+FsDwsAgwYNwtGjR1WfzxKKpvw/rCYSvHj55Zfx66+/yj5eURfZhQsX/P69bdu2SrKRjdyYRbz5448/eJsgCy1E7eLFi8zz5Em4vjxz5gwjSwjCeCh9vpmF69dqDCYuLg7ffPONJnk3JNxrULK9gFVaMAMGDMBvv/3GNM9Q+K4h2D2k/WCoBVMXo/jE7Cj1CbMpP/4Gf1mgx4yyQ4cOMRHIuXPnysqHV+XVopvg7NmzuHz5MiRJqt33hSVerxc1NTW4du0a8vLyMGPGDHTo0AE9evTAggULkJ2d3WgtDm/0CMNvZaqqqpjPsiSf8IHphmNatWK0HIvhYTOvHS2bNWum6RbOvj1OunTpglmzZmHChAlhfTW63W6kp6cjJycnqIgIgoABAwZg9OjRWLhwIQRB4NqCAZ5sv8x722SztmB41Q8iONnZ2Zg+fbqicxQLTLCKo+VU5ZiYGOzatYtpnnpMrfYnNFYVGH8899xzSExMxJYtW9CmTRs0ayZ/6VXLli1DbqvckCFDhuDIkSOKyvGhpgIFg/cLjQSmPrz9YXbU+EVxFxnLCqiER48eYcyYMUhPT2+0v7tSJEnCnDlzGFkWGF94FaOgZGdDVly8eBEHDx5Ex44d0bx5czRv3hzNmjVDQkIC/vzzz6DbLSgVF+DJjntqgxvyerYJwuio7hGAwhYM8GTfbn9jI8FaBP6+5MNpQSQnJ2Pp0qWKz8vLy2PeEvLH2rVr0b17d7+/8fpCq6ioQKtWrZiNWSxcuBA///yz6kF+URTRokULvPbaa1i0aBHi4+PRoUOH2mgAaoNliqKo+Brj4uKYf7Xz/mKmFkx9ePvDzOgqMMCTLY0XLFigqtCGGD0KgFKCjb+sWbMGH330kWZlB6tEvhAxBw4cwLp163D8+HHFlU4URTx8+BCCIARdue8LiunxeFBZWYn09HQUFBToFgZISVeg1oseeb3YSGAaQyKjjF9++UXxNsl1UT2LbOvWraoLbcrwvm+CIODVV19FRkaG4rhhoiiiefPmsNvtIcPC+F4SNpsNcXFx2Lx5M6ZMmYL27dujVatWFG2ZIEzAF198Edb5qgWmpKSEXhAqKCkp0TR/QRBw7ty5oMdER0dj4sSJqKqqwiuvvILIyMiQ+Y4YMQKlpaWqxkWAJ3tyfPbZZ7h+/Tpu374Nt9uNx48f4/Hjx7hw4QKmTZuG0aNHo2PHjroGzAx1r1hA9UQeerxTyBfyKSkpwd69e8PKQ3UXWV3CbXYasYusa9eu2LBhQ6O/l5eXY+bMmX7PiYyMxPr169G5c2e/v+v5cBcVFTVq2srpPvN4PKiqqoIgCLV7aKiZkRUO//zzD1asWIHt27erzkNOF5neLxu9u2fM1EVmdV+YDVZd+RRbPQD+xAUAHA5HwDGWrVu3BhSX3NxcZrbJYejQoYqOFwShtgusZcuWiIuLQ7NmzXQXFwDo1KmTYvuVorc/CGMxdepU3iYYGlbjxEwEJioqikU2psJfqPtAiwpdLheXDdRcLpfuZbIgIiICEydO1LQMq29oZyZ4dFtt374dy5cv171cM8DyvlALhiAIgtAEJmMwPtT2axptDIZlaBreg4rr1q3DvHnzAJiv31ntOpjIyMig4w48faKnD8wwBsO7fhQWFmreHWs2WPqEewuG5eZXRsLj8aB37968zUBmZib3SqwWJQEKRVGEKIp48cUXFW2wpTdaBAQ1I+HEi2PJsGHDDGGHVdF/BLcOTqcTX331FU8TNEPO1F8iODdv3kR0dHTIGWG+CQoxMTEoLi7WJIw/K3zPhdlak1Yn3F0erQLr+sFUYARBULTvQjjiEqobK5xut1OnTqF///6qz+f9EvNH3759TbcZls1mg8fjgSRJqKqqQkFBAbZs2YKCggLY7XaMGTMGAwcOxAcffCArPyPsceKjKb/QNm3axNsEogFavbOYjsHUJVTluXPnjqo9ZOx2O+bMmYOXXnop6HH79u3D7t27FefvI5xxGCMKDADk5ORg/PjxvM3QnT179mDChAm8zQiIVkJjxDGY06dPh/XxpjUOhwNlZWW8zdAFPXyhmcD46NSpU8jpskpaG0pe/GPHjlVdedUIjFGFpSFN5cv57NmzGDVqFK5du8bblJBo4ROXy4UuXbooPi8mJkYTgTFL/QCsX0eioqKYb+rmD80FBnjS6qisrAz4+99//41Fixbh8ePHQfNR+tL3eDwYN26conPUlmWmygOE9okVMJNPrPxCM5Mf6kI+CR9dBvlDKWW3bt2wZ88eAMCUKVNw//79er9nZ2ejbdu2isu12WyKz1GDGSuQLxyMVSuR2Xzis9dq/jCbH+piVZ+sWrVKt7J0m0UmCALeffdd7Ny5M+hxO3bsqP13SkoK3G63KnFRgy/Iopzw1B6PxxIzxaxYieilxh8z+6AhVvgQKyoqwrBhw3QvV5cuMn/8/vvvSEpK0rycQOM7DocjrNksVqpAPsxciazoDx9m8ku/fv1MN1tRCcnJyTh9+jRvM2RhBF9wW2jZp08fLuUKgoAPP/wwYDBLOaxfv56hRcbBqtdldswSU87lcnF/oWmNma7PCLZya8HUxSxfaFb+Sq6LWSYA6DUTxghMmzYN2dnZvM3wS1OpFw25dOkSevTowdsMv6SnpxtmEbtkxMQb3tdvtFRYWMjVH6mpqdzvgVGTXsTHx3O/VjOk+Ph4KTU1VXN/8L5OmYm7AUFTbGys5o4ymcO4Jz2JjY3lfr1mSYsXL2Z67xcvXsz9mqyQmrhPuBsQMmVmZkpOp5OpoyRJkjIzM7lfm9lTZmYmc7/44H1tVkhpaWmy73d5ebmUlpbG3WYrJ4fDIZ04caIp1QHuBoSVBg8eLG3cuFFyOp1SWVmZ5Ha7pZqaGsntdktlZWXS7NmzJbvdzt3Oppbsdrs0e/ZsqaysTLp7964kSZJ09+5d6ejRo5LT6ZSWLVvG3UZKlChpmwwxyE8QBEFYD+77wRAEQRDWhASGIAiC0AQSGIIgCEITSGAIgiAITSCBIQiCIDSBBIYgCILQBBIYgiAIQhNIYAiCIAhNIIEhCIIgNOH/AI/GNh0ImhAtAAAAAElFTkSuQmCC;" parent="0Lc4bkA0Kibh3pHjnK10-1" vertex="1">
          <mxGeometry x="406.95" y="20" width="266.09" height="60" as="geometry" />
        </mxCell>
      </root>
    </mxGraphModel>
  </diagram>
  <diagram id="pjIvnJGUUMEqIwKtk9GK" name="Settings">
    <mxGraphModel dx="1278" dy="547" grid="1" gridSize="10" guides="1" tooltips="1" connect="1" arrows="1" fold="1" page="1" pageScale="1" pageWidth="850" pageHeight="1100" math="0" shadow="0">
      <root>
        <mxCell id="LrLpTUWoC_Iqp_vYd25B-0" />
        <mxCell id="LrLpTUWoC_Iqp_vYd25B-1" parent="LrLpTUWoC_Iqp_vYd25B-0" />
        <mxCell id="LrLpTUWoC_Iqp_vYd25B-2" value="&lt;font style=&quot;font-size: 72px&quot;&gt;Settings&lt;/font&gt;" style="text;html=1;strokeColor=none;fillColor=none;align=center;verticalAlign=middle;whiteSpace=wrap;rounded=0;fontSize=36;" parent="LrLpTUWoC_Iqp_vYd25B-1" vertex="1">
          <mxGeometry x="130" y="70" width="60" height="30" as="geometry" />
        </mxCell>
        <mxCell id="LrLpTUWoC_Iqp_vYd25B-18" value="" style="shape=image;verticalLabelPosition=bottom;labelBackgroundColor=default;verticalAlign=top;aspect=fixed;imageAspect=0;image=data:image/png,iVBORw0KGgoAAAANSUhEUgAAAMgAAADICAYAAACtWK6eAAAABHNCSVQICAgIfAhkiAAAAAlwSFlzAAALEwAACxMBAJqcGAAACq9JREFUeJzt3XusHUUBx/FvCy2lL6GF0oKtxUJaIRAMKiACoVbwQTCKikQgCmg0ERWNgQD+oUb/QFP/QCEmCgZFIkp84qNAi0gVEUgECoWWUl5SGp4tpeX25R9zL21v7zn3nt2ZM7t7vp/kF4Xo7OzMnbPPmQVJkiRJkiRJkiRJkiRJkiRJkiRJkiRJkiRJkiRJkiRJkiRJkiRJkiRJkiRJkiRJ6syo3BVIYA9gNjALmAxMBCbtlL1p5n53w3ZgI7B+UNYBT/RnW7baJVD3P5Q5wPHAPGBu/3/OAfbKWaketglYCTzSn4eBpcDjOStVRt0GyJuB+f05mXCUUPWtBpYAi/vzv6y1aZhZwGXAMsIh3tQ/DwCXEH7wVMAk4DOEX51t5O9QkyZbgVuBc4EJaFgzgSuBDeTvPNPdrAd+AByEdnMI8FOgj/wdZfLmdeDHwMGIQ4BfAlvI3zGmWtkMXEePDpRxwLcItwVzd4Spdl4DvkEP3br/EPAY+Rve1CuPAqfQYNOB35K/oU29cyOwPw2zAFhD/sY1zcgzwEk0wB7Atwn3u3M3qmlWthCuTUZTUzOA28nfkKbZuQWYRiKp3sU6AvgrcGCi8qWdPQWcSng5MqoUh6cTgDtwcKh7ZgJ3AsfGLjj2ADkdWATsE7lcaThTgNuAD+auSCvn4RNxkz+bgXOomLPxrVtTnWwFPkEEMS7S3w/8ARgToSwplj7C6dZtZQopO0CO6a+A7/I3xyZgBWHK7ArgRXbMPd9AeCdqYJ7/ZML8/7n92a/71W1rPWHm6b1FCygzQOYR7hxMLVGG8ltLeF61mDBBbSXFF17Yj7BGwMC06MPJP617LaFOK7u50TcBq8h/rmmK5XngR4QzgJRmAF8D/ptxX7cTjoYTE+/rLm5KsBMmff4BfAQYu3uXJnckcDX5pjhcn34Xgwu7tEMmXhZRnZf7DgQWkmda9QWpd+5owpTI3B1uRpYHqc7AGOwAwozBbrbHa4TXoJKYSLjQyd3pZvi8Cnwd2HPInqyWkwgDuVttsxwYn2JHFnZxJ0zx3E395nGPAb5P9x42fyf2DhxBeISfu/NN+yyk3g9sTwNeIH07vU54bhPFKMLdj9ydb1pnI3BGqw6smZnA/aRvs1tiVfjTXaisKZ6XgRNbdV5N7UOYMpG67c4sW9HJhCeRuf8IzNB5lvB8oYnGAb8jbfs9Q8kL9ksTV9AUzwvAYa27rhH2BP5M2na8qGjlxuPRo6rZABzXuusaZQJwF+na8hkKLkr35YSVMsWzhbD4Xi+ZSnh+kapNP99phcYCTyeskCmey9v0W5MdTrrXUx6nw4eqFySqiCmXW6jxOlARnEe6tj23k4rck7AipljWEN5f6nU/J037Lh1pBQ5LVAFTLme167QeMoV0N4/mDN7YUIfrjg416orFwA25K1ERLwIXJyp72NVQRhNWqcv9a2l25HXC9GbtMIow3Tt2Wz823Ibfm2Cjplx+2LbHetcxpGnv43feyOBTrChrCSmazcAVuStRUf+m5JI+LbR9P8sJUdXKNe06S5xM/DZf1mpjsxJszJRLtDkLDZbiNZQ3bqfvfIo1P+1+qENLCcvVqL1rE5R58sB/GT3Uv1QlXJe7AjVxI+FOX0xDHiyeJP8phQnZiJ+Q6MRviNv+b6zCOHAEOYAw1VHVcCthpqBG5teRy5tD/w/UwADxYrBaFueuQM0sIfzyxzQXHCBVtSR3BWpmLW1uzxbkAKmoFwiLPaszsR8azgMHSBXdS/zThV5wT+TyPIJUlM8+iondbrsMkOmRC1dxDpBiYrfbdNgxQPyEWnU4QIpZR1gnLJZJEAbIBHp7nnPVrMldgRqL2XZjgbGj6R8pqoz1uStQY7HbbpIDpHocIMU5QHrAq7krUGNJBoikFkbjIb1quvq54oaJfTa03gFSPZ7yFucA6QEOkOKSDJANhI8nqhp8q6G4mG3XB/QNXKRviFiwynGRuGImAzMilrcedjxB9+ltdfjiaDGx220N7Bggvv9THQ6QYmK32yPgAKmiowlrz6oz74pc3nJwgFTRFOCo3JWoodjrunkEqTDXKOvMNMIn2mLaZYAsj1y4ynGVy86kaK9dBshawsJxqoYFwL65K1EjH49c3kr61yXb+WVFl5qpjr3wUxQjtS9wWuQy31iXzAFSXX4Kb2TOJMz+i2nIhftmkn9NWrNrfKo+vLuJ3+7TWm1sRYKNmeL5WauOEpDmk4EP7ryBwROmbk2zHyroU8Ds3JWosMsTlNl2DKT4pJUpl6vadVgPezdp2vu4dhsdBTyRaMOmWPqAw9p1Wg8aBfyL+G29YvCGBp9ibQeuj703KmUMHkUGOx84NkG5vxjJ/+ht5P/VNLvn7Had1kOmAs+Tpo3fOtJK/CdRBUzxrCXuhKC6uoE07XtnJ5U4P1ElTLksAfZo029N9znStW1HR+ix+FHPquabbfqtyY4kfNw0RZs+RoEfngsTVcaUy1bgw236rYn2J+1D7M8WqdTewHMJK2WKZyNwQuuua5SJpL0mfooS73JdnLBiplxeAo5o3XWNMAZYRNp2/FKZCk4irO6Q+4/BDJ3ngLe37L16Gw/8ibTt9yThTKmUcxJX0pTLOpo3A3EK8E/St90ZsSp8excqa4pnE3BWq86rmYOBh0jfZn+JWenDgc1dqLQpl6sIsxHr6gzCVNfU7bQJOCR25b/XhYqb8rkPOLRFH1bVXsCVdK+NkjxLmgA82sWdMMXzGmGuROypqCm8j7CCSLfa5gFgXKqdOYpweMr9B2BGlkcIf4BVdBDwK7rbHq8SXsZN6gtd3ilTPn8HThmqMzN4C+FaKccPbdcWwuj2yDdxcjfwSRKeYrTxTuAawgSwHPt+bfpd3GEyLvBQ57wM/AQ4kd0nzcU0G7iMsHJnzv1dRnjw2LEyq4gfCiwlvEim+nqZcAq2mPA6/cPAloJlHUh4R2x+f6LfSi3gWcL89dVF/s9ll9l/B6FR/TJrc2wBVhF+9VcALxK+tjSQcYRXkCYRziRmE77NMbf/n6vkFcKAfaBoATG+Q7EAuJl63FJU79gEnArcUaaQGLPTVhF+aT6KH35RNWwlLEn6t7IFxZq+uYwwUE4n7UWfNJw+wgu2N+WuyFA+QPhibu67NKY3s46wHGk0KU6JjiFck0xNULbUylrCD/R9MQtNdc0wj3D+NytR+dLOVhEuyFfGLjjV9cJywi3gRYnKlwb8kfCUPvrg6IZRwKWEe+u5z09Ns9IHfJWGOAF4mvyNapqR1YRr3UbZj3TLRpreyDbCR4Ua/YHT+YT3fXI3tqlX7gfeQ48YC1yCz0zM8FkHXATsSQ+aRXjtOtccAVPdbAKuJrwh3PNmESbtp1qc2NQnG4CFODCGNB24gvCacu6OMt3NS8B3cX7RiOxNmBp6M67H1eT0Ab8HPka91/PKahrwFcIK39vI36mmXLYCdwFfJNz6r7S6zd+YSvhU9cCUzrl5q6MReogwpXcxYRnbl7LWpgN1GyCDzQCOJ7wcOZfqTv3sFa8Q1uIayHLCt/+ey1mpMuo+QFqZQVh/adIQGU9z9zu17YS7TOuHyGpqPBAkSZIkSZIkSZIkSZIkSZIkSZIkSZIkSZIkSZIkSZIkSZIkSZIkSZIkSZIkSZIkKZb/A9mhfabTjPi8AAAAAElFTkSuQmCC;" parent="LrLpTUWoC_Iqp_vYd25B-1" vertex="1">
          <mxGeometry x="131" y="199" width="70" height="70" as="geometry" />
        </mxCell>
        <mxCell id="LrLpTUWoC_Iqp_vYd25B-19" value="&lt;font style=&quot;font-size: 36px&quot;&gt;Light&lt;/font&gt;" style="text;html=1;align=center;verticalAlign=middle;resizable=0;points=[];autosize=1;strokeColor=none;fillColor=none;fontSize=72;" parent="LrLpTUWoC_Iqp_vYd25B-1" vertex="1">
          <mxGeometry x="30" y="170" width="90" height="100" as="geometry" />
        </mxCell>
        <mxCell id="LrLpTUWoC_Iqp_vYd25B-20" value="&lt;font style=&quot;font-size: 36px&quot;&gt;Dark&lt;/font&gt;" style="text;html=1;align=center;verticalAlign=middle;resizable=0;points=[];autosize=1;strokeColor=none;fillColor=none;fontSize=72;" parent="LrLpTUWoC_Iqp_vYd25B-1" vertex="1">
          <mxGeometry x="210" y="170" width="90" height="100" as="geometry" />
        </mxCell>
        <mxCell id="LrLpTUWoC_Iqp_vYd25B-21" value="&lt;font style=&quot;font-size: 36px&quot;&gt;Enable edit-share&lt;/font&gt;" style="text;html=1;align=center;verticalAlign=middle;resizable=0;points=[];autosize=1;strokeColor=none;fillColor=none;fontSize=72;" parent="LrLpTUWoC_Iqp_vYd25B-1" vertex="1">
          <mxGeometry x="26" y="235" width="300" height="100" as="geometry" />
        </mxCell>
        <mxCell id="LrLpTUWoC_Iqp_vYd25B-22" value="" style="shape=image;verticalLabelPosition=bottom;labelBackgroundColor=default;verticalAlign=top;aspect=fixed;imageAspect=0;image=data:image/png,iVBORw0KGgoAAAANSUhEUgAAAMgAAADICAYAAACtWK6eAAAABHNCSVQICAgIfAhkiAAAAAlwSFlzAAALEwAACxMBAJqcGAAACq9JREFUeJzt3XusHUUBx/FvCy2lL6GF0oKtxUJaIRAMKiACoVbwQTCKikQgCmg0ERWNgQD+oUb/QFP/QCEmCgZFIkp84qNAi0gVEUgECoWWUl5SGp4tpeX25R9zL21v7zn3nt2ZM7t7vp/kF4Xo7OzMnbPPmQVJkiRJkiRJkiRJkiRJkiRJkiRJkiRJkiRJkiRJkiRJkiRJkiRJkiRJkiRJkiRJ6syo3BVIYA9gNjALmAxMBCbtlL1p5n53w3ZgI7B+UNYBT/RnW7baJVD3P5Q5wPHAPGBu/3/OAfbKWaketglYCTzSn4eBpcDjOStVRt0GyJuB+f05mXCUUPWtBpYAi/vzv6y1aZhZwGXAMsIh3tQ/DwCXEH7wVMAk4DOEX51t5O9QkyZbgVuBc4EJaFgzgSuBDeTvPNPdrAd+AByEdnMI8FOgj/wdZfLmdeDHwMGIQ4BfAlvI3zGmWtkMXEePDpRxwLcItwVzd4Spdl4DvkEP3br/EPAY+Rve1CuPAqfQYNOB35K/oU29cyOwPw2zAFhD/sY1zcgzwEk0wB7Atwn3u3M3qmlWthCuTUZTUzOA28nfkKbZuQWYRiKp3sU6AvgrcGCi8qWdPQWcSng5MqoUh6cTgDtwcKh7ZgJ3AsfGLjj2ADkdWATsE7lcaThTgNuAD+auSCvn4RNxkz+bgXOomLPxrVtTnWwFPkEEMS7S3w/8ARgToSwplj7C6dZtZQopO0CO6a+A7/I3xyZgBWHK7ArgRXbMPd9AeCdqYJ7/ZML8/7n92a/71W1rPWHm6b1FCygzQOYR7hxMLVGG8ltLeF61mDBBbSXFF17Yj7BGwMC06MPJP617LaFOK7u50TcBq8h/rmmK5XngR4QzgJRmAF8D/ptxX7cTjoYTE+/rLm5KsBMmff4BfAQYu3uXJnckcDX5pjhcn34Xgwu7tEMmXhZRnZf7DgQWkmda9QWpd+5owpTI3B1uRpYHqc7AGOwAwozBbrbHa4TXoJKYSLjQyd3pZvi8Cnwd2HPInqyWkwgDuVttsxwYn2JHFnZxJ0zx3E395nGPAb5P9x42fyf2DhxBeISfu/NN+yyk3g9sTwNeIH07vU54bhPFKMLdj9ydb1pnI3BGqw6smZnA/aRvs1tiVfjTXaisKZ6XgRNbdV5N7UOYMpG67c4sW9HJhCeRuf8IzNB5lvB8oYnGAb8jbfs9Q8kL9ksTV9AUzwvAYa27rhH2BP5M2na8qGjlxuPRo6rZABzXuusaZQJwF+na8hkKLkr35YSVMsWzhbD4Xi+ZSnh+kapNP99phcYCTyeskCmey9v0W5MdTrrXUx6nw4eqFySqiCmXW6jxOlARnEe6tj23k4rck7AipljWEN5f6nU/J037Lh1pBQ5LVAFTLme167QeMoV0N4/mDN7YUIfrjg416orFwA25K1ERLwIXJyp72NVQRhNWqcv9a2l25HXC9GbtMIow3Tt2Wz823Ibfm2Cjplx+2LbHetcxpGnv43feyOBTrChrCSmazcAVuStRUf+m5JI+LbR9P8sJUdXKNe06S5xM/DZf1mpjsxJszJRLtDkLDZbiNZQ3bqfvfIo1P+1+qENLCcvVqL1rE5R58sB/GT3Uv1QlXJe7AjVxI+FOX0xDHiyeJP8phQnZiJ+Q6MRviNv+b6zCOHAEOYAw1VHVcCthpqBG5teRy5tD/w/UwADxYrBaFueuQM0sIfzyxzQXHCBVtSR3BWpmLW1uzxbkAKmoFwiLPaszsR8azgMHSBXdS/zThV5wT+TyPIJUlM8+iondbrsMkOmRC1dxDpBiYrfbdNgxQPyEWnU4QIpZR1gnLJZJEAbIBHp7nnPVrMldgRqL2XZjgbGj6R8pqoz1uStQY7HbbpIDpHocIMU5QHrAq7krUGNJBoikFkbjIb1quvq54oaJfTa03gFSPZ7yFucA6QEOkOKSDJANhI8nqhp8q6G4mG3XB/QNXKRviFiwynGRuGImAzMilrcedjxB9+ltdfjiaDGx220N7Bggvv9THQ6QYmK32yPgAKmiowlrz6oz74pc3nJwgFTRFOCo3JWoodjrunkEqTDXKOvMNMIn2mLaZYAsj1y4ynGVy86kaK9dBshawsJxqoYFwL65K1EjH49c3kr61yXb+WVFl5qpjr3wUxQjtS9wWuQy31iXzAFSXX4Kb2TOJMz+i2nIhftmkn9NWrNrfKo+vLuJ3+7TWm1sRYKNmeL5WauOEpDmk4EP7ryBwROmbk2zHyroU8Ds3JWosMsTlNl2DKT4pJUpl6vadVgPezdp2vu4dhsdBTyRaMOmWPqAw9p1Wg8aBfyL+G29YvCGBp9ibQeuj703KmUMHkUGOx84NkG5vxjJ/+ht5P/VNLvn7Had1kOmAs+Tpo3fOtJK/CdRBUzxrCXuhKC6uoE07XtnJ5U4P1ElTLksAfZo029N9znStW1HR+ix+FHPquabbfqtyY4kfNw0RZs+RoEfngsTVcaUy1bgw236rYn2J+1D7M8WqdTewHMJK2WKZyNwQuuua5SJpL0mfooS73JdnLBiplxeAo5o3XWNMAZYRNp2/FKZCk4irO6Q+4/BDJ3ngLe37L16Gw/8ibTt9yThTKmUcxJX0pTLOpo3A3EK8E/St90ZsSp8excqa4pnE3BWq86rmYOBh0jfZn+JWenDgc1dqLQpl6sIsxHr6gzCVNfU7bQJOCR25b/XhYqb8rkPOLRFH1bVXsCVdK+NkjxLmgA82sWdMMXzGmGuROypqCm8j7CCSLfa5gFgXKqdOYpweMr9B2BGlkcIf4BVdBDwK7rbHq8SXsZN6gtd3ilTPn8HThmqMzN4C+FaKccPbdcWwuj2yDdxcjfwSRKeYrTxTuAawgSwHPt+bfpd3GEyLvBQ57wM/AQ4kd0nzcU0G7iMsHJnzv1dRnjw2LEyq4gfCiwlvEim+nqZcAq2mPA6/cPAloJlHUh4R2x+f6LfSi3gWcL89dVF/s9ll9l/B6FR/TJrc2wBVhF+9VcALxK+tjSQcYRXkCYRziRmE77NMbf/n6vkFcKAfaBoATG+Q7EAuJl63FJU79gEnArcUaaQGLPTVhF+aT6KH35RNWwlLEn6t7IFxZq+uYwwUE4n7UWfNJw+wgu2N+WuyFA+QPhibu67NKY3s46wHGk0KU6JjiFck0xNULbUylrCD/R9MQtNdc0wj3D+NytR+dLOVhEuyFfGLjjV9cJywi3gRYnKlwb8kfCUPvrg6IZRwKWEe+u5z09Ns9IHfJWGOAF4mvyNapqR1YRr3UbZj3TLRpreyDbCR4Ua/YHT+YT3fXI3tqlX7gfeQ48YC1yCz0zM8FkHXATsSQ+aRXjtOtccAVPdbAKuJrwh3PNmESbtp1qc2NQnG4CFODCGNB24gvCacu6OMt3NS8B3cX7RiOxNmBp6M67H1eT0Ab8HPka91/PKahrwFcIK39vI36mmXLYCdwFfJNz6r7S6zd+YSvhU9cCUzrl5q6MReogwpXcxYRnbl7LWpgN1GyCDzQCOJ7wcOZfqTv3sFa8Q1uIayHLCt/+ey1mpMuo+QFqZQVh/adIQGU9z9zu17YS7TOuHyGpqPBAkSZIkSZIkSZIkSZIkSZIkSZIkSZIkSZIkSZIkSZIkSZIkSZIkSZIkSZIkSZIkKZb/A9mhfabTjPi8AAAAAElFTkSuQmCC;" parent="LrLpTUWoC_Iqp_vYd25B-1" vertex="1">
          <mxGeometry x="339" y="265" width="70" height="70" as="geometry" />
        </mxCell>
        <mxCell id="LrLpTUWoC_Iqp_vYd25B-24" value="Back to Lists" style="rounded=1;whiteSpace=wrap;html=1;fontSize=36;" parent="LrLpTUWoC_Iqp_vYd25B-1" vertex="1">
          <mxGeometry x="30" y="570" width="230" height="60" as="geometry" />
        </mxCell>
        <mxCell id="SIldwhQvQ7FtN9qhIjpo-0" value="Application Settings" style="text;html=1;strokeColor=none;fillColor=none;align=center;verticalAlign=middle;whiteSpace=wrap;rounded=0;fontSize=48;" parent="LrLpTUWoC_Iqp_vYd25B-1" vertex="1">
          <mxGeometry x="30" y="150" width="425" height="30" as="geometry" />
        </mxCell>
        <mxCell id="gJUVGcFysYZd4oBpN2eL-0" value="User Settings" style="text;html=1;strokeColor=none;fillColor=none;align=center;verticalAlign=middle;whiteSpace=wrap;rounded=0;fontSize=48;" vertex="1" parent="LrLpTUWoC_Iqp_vYd25B-1">
          <mxGeometry x="21" y="396" width="310" height="30" as="geometry" />
        </mxCell>
        <mxCell id="gJUVGcFysYZd4oBpN2eL-1" value="&lt;font style=&quot;font-size: 24px&quot;&gt;First Name&lt;/font&gt;" style="text;html=1;strokeColor=none;fillColor=none;align=center;verticalAlign=middle;whiteSpace=wrap;rounded=0;" vertex="1" parent="LrLpTUWoC_Iqp_vYd25B-1">
          <mxGeometry x="30" y="446" width="120" height="30" as="geometry" />
        </mxCell>
        <mxCell id="gJUVGcFysYZd4oBpN2eL-3" value="&lt;font style=&quot;font-size: 24px&quot;&gt;Last Name&lt;/font&gt;" style="text;html=1;strokeColor=none;fillColor=none;align=center;verticalAlign=middle;whiteSpace=wrap;rounded=0;" vertex="1" parent="LrLpTUWoC_Iqp_vYd25B-1">
          <mxGeometry x="285" y="446" width="126" height="30" as="geometry" />
        </mxCell>
        <mxCell id="gJUVGcFysYZd4oBpN2eL-4" value="" style="rounded=1;whiteSpace=wrap;html=1;fontSize=24;" vertex="1" parent="LrLpTUWoC_Iqp_vYd25B-1">
          <mxGeometry x="285" y="486" width="230" height="30" as="geometry" />
        </mxCell>
        <mxCell id="gJUVGcFysYZd4oBpN2eL-5" value="&lt;font style=&quot;font-size: 24px&quot;&gt;Email&lt;/font&gt;" style="text;html=1;strokeColor=none;fillColor=none;align=center;verticalAlign=middle;whiteSpace=wrap;rounded=0;" vertex="1" parent="LrLpTUWoC_Iqp_vYd25B-1">
          <mxGeometry x="546" y="446" width="60" height="30" as="geometry" />
        </mxCell>
        <mxCell id="gJUVGcFysYZd4oBpN2eL-7" value="" style="rounded=1;whiteSpace=wrap;html=1;fontSize=24;" vertex="1" parent="LrLpTUWoC_Iqp_vYd25B-1">
          <mxGeometry x="30" y="486" width="230" height="30" as="geometry" />
        </mxCell>
        <mxCell id="gJUVGcFysYZd4oBpN2eL-8" value="" style="rounded=1;whiteSpace=wrap;html=1;fontSize=24;" vertex="1" parent="LrLpTUWoC_Iqp_vYd25B-1">
          <mxGeometry x="541" y="486" width="230" height="30" as="geometry" />
        </mxCell>
      </root>
    </mxGraphModel>
  </diagram>
  <diagram name="About" id="upR-I-z5gRlqzV-JrxXg">
    <mxGraphModel dx="1278" dy="1647" grid="1" gridSize="10" guides="1" tooltips="1" connect="1" arrows="1" fold="1" page="1" pageScale="1" pageWidth="850" pageHeight="1100" math="0" shadow="0">
      <root>
        <mxCell id="CupuocHdzw0nKbgxyas8-0" />
        <mxCell id="CupuocHdzw0nKbgxyas8-1" parent="CupuocHdzw0nKbgxyas8-0" />
        <mxCell id="CupuocHdzw0nKbgxyas8-8" value="Back to Lists" style="rounded=1;whiteSpace=wrap;html=1;fontSize=36;" parent="CupuocHdzw0nKbgxyas8-1" vertex="1">
          <mxGeometry x="30" y="672" width="230" height="60" as="geometry" />
        </mxCell>
        <mxCell id="CupuocHdzw0nKbgxyas8-11" value="&lt;h1&gt;About&lt;/h1&gt;&lt;p&gt;Lorem ipsum dolor sit amet, consectetur adipisicing elit, sed do eiusmod tempor incididunt ut labore et dolore magna aliqua.&lt;/p&gt;" style="text;html=1;strokeColor=none;fillColor=none;spacing=5;spacingTop=-20;whiteSpace=wrap;overflow=hidden;rounded=0;fontSize=48;" parent="CupuocHdzw0nKbgxyas8-1" vertex="1">
          <mxGeometry x="20" y="-40" width="720" height="490" as="geometry" />
        </mxCell>
        <mxCell id="CupuocHdzw0nKbgxyas8-12" value="" style="shape=image;verticalLabelPosition=bottom;labelBackgroundColor=default;verticalAlign=top;aspect=fixed;imageAspect=0;image=https://geeksperhour.com/wp-content/uploads/2019/02/mern-img.png;" parent="CupuocHdzw0nKbgxyas8-1" vertex="1">
          <mxGeometry x="100" y="440" width="520" height="200" as="geometry" />
        </mxCell>
      </root>
    </mxGraphModel>
  </diagram>
</mxfile>
